<?xml version="1.0" encoding="utf-8"?>
<!-- Generator: Adobe Illustrator 25.0.1, SVG Export Plug-In . SVG Version: 6.00 Build 0)  -->
<svg version="1.1" id="Layer_1" xmlns="http://www.w3.org/2000/svg" xmlns:xlink="http://www.w3.org/1999/xlink" x="0px" y="0px"
	 viewBox="0 0 556.41 556.41" style="enable-background:new 0 0 556.41 556.41;" xml:space="preserve">
<style type="text/css">
	.st0{fill:transparent;}
	.st1{fill:#FFFFFF;}
	.st2{opacity:0.2;fill:#FFFFFF;}
</style>
<g>
	<path class="st0" d="M464,0H92.42C41.38,0,0,41.38,0,92.42V464c0,51.04,41.38,92.42,92.42,92.42H464
		c51.04,0,92.42-41.38,92.42-92.42V92.42C556.41,41.38,515.04,0,464,0z"/>
	<g>
		<g>
			<path class="st1" d="M467.6,278.26c0,105.17-85.55,190.72-190.7,190.72c-26.89,0-52.5-5.59-75.74-15.69
				c-7.87-3.41-15.45-7.34-22.73-11.75c-55.25-33.43-92.25-94.11-92.25-163.28c0-69.15,37-129.83,92.25-163.26
				c8.32-5.05,17.05-9.46,26.14-13.2c22.32-9.18,46.75-14.24,72.33-14.24c33.49,0,66.45,8.81,95.29,25.49l-12.55,21.71
				c-25.05-14.47-53.65-22.11-82.75-22.11c-18.51,0-36.31,3.06-52.93,8.66c-13.99,4.74-27.16,11.29-39.2,19.38
				c-44.3,29.76-73.49,80.31-73.49,137.57c0,56.05,27.97,105.67,70.69,135.65c11.78,8.28,24.68,15.04,38.42,20.04
				c17.64,6.44,36.68,9.93,56.52,9.93c91.32,0,165.61-74.29,165.61-165.63c0-30.79-8.5-60.84-24.61-86.91l21.34-13.2
				C457.8,208.2,467.6,242.81,467.6,278.26z"/>
		</g>
		<g>
			<path class="st1" d="M400.52,168.06c-4.31-4.83-8.94-9.44-13.76-13.72l16.65-18.77c5.55,4.92,10.88,10.24,15.83,15.79
				L400.52,168.06z"/>
		</g>
	</g>
	<g>
		<path class="st1" d="M270.84,177.07V341.9h-22.11c-10.33,0-18.71-8.38-18.71-18.71v-32.34c0-11.84-5.03-22.53-13.01-30.09
			c7.99-7.57,13.01-18.25,13.01-30.11v-34.86c0-10.31,8.38-18.71,18.71-18.71H270.84z"/>
		<path class="st1" d="M248.73,364.71h22.11v37.32c-65.65-3.16-117.93-57.33-117.93-123.77c0-46.38,25.48-86.78,63.19-108.04
			c-5.54,7.05-8.88,15.91-8.88,25.56v34.86c0,10.33-8.38,18.71-18.69,18.71H177.8v22.8h10.73c10.31,0,18.69,8.38,18.69,18.69v32.34
			C207.22,346.07,225.85,364.71,248.73,364.71z"/>
		<path class="st2" d="M336.77,298.3c-7.99,7.59-13.01,18.25-13.01,30.11v32.34c0,10.31-8.38,18.71-18.69,18.71h-22.64V214.64h22.64
			c10.31,0,18.69,8.38,18.69,18.69v34.88C323.76,280.07,328.78,290.73,336.77,298.3z"/>
		<path class="st2" d="M400.89,278.26c0,46.38-25.49,86.8-63.21,108.06c5.54-7.05,8.88-15.91,8.88-25.56v-32.34
			c0-10.31,8.38-18.71,18.69-18.71H376v-22.78h-10.75c-10.31,0-18.69-8.4-18.69-18.71v-34.88c0-22.88-18.61-41.5-41.5-41.5h-22.64
			v-37.36C348.31,157.37,400.89,211.66,400.89,278.26z"/>
	</g>
</g>
</svg>
