<?xml version="1.0" encoding="UTF-8" standalone="no"?>
<!DOCTYPE svg PUBLIC "-//W3C//DTD SVG 1.1//EN" "http://www.w3.org/Graphics/SVG/1.1/DTD/svg11.dtd">
<svg width="100%" height="100%" viewBox="0 0 400 190" version="1.1" xmlns="http://www.w3.org/2000/svg" xmlns:xlink="http://www.w3.org/1999/xlink" xml:space="preserve" xmlns:serif="http://www.serif.com/" style="fill-rule:evenodd;clip-rule:evenodd;stroke-linejoin:round;stroke-miterlimit:2;">
    <g transform="matrix(10.0826,0,0,-9.1113,-366.054,1209.26)">
        <path d="M67.529,132.133L64.699,120.621L61.861,132.133L53.664,132.133L53.664,127.882C52.668,131.602 49.014,132.535 45.749,132.588C41.768,132.64 37.357,130.915 37.204,125.651L42.71,125.651C42.71,127.24 44.165,128.15 45.539,128.127C47.226,128.141 48.002,127.421 48.041,126.3C47.983,125.327 47.409,124.65 45.553,124.65L43.701,124.65L43.701,120.83L45.382,120.83C46.337,120.83 47.666,120.31 47.718,118.95C47.782,117.329 46.655,116.617 45.268,116.603C42.792,116.695 42.153,118.597 42.153,120.233L36.438,120.233C36.462,119.131 36.426,111.948 45.383,112.001C49.674,111.962 52.797,113.766 53.678,116.253L53.678,112.441L59.19,112.441L59.19,124.861L62.238,112.441L67.163,112.441L70.222,124.847L70.222,112.43L75.846,112.43L75.846,132.133L67.529,132.133ZM53.682,120.648C52.98,122.1 51.992,122.735 51.436,122.936C52.603,123.455 53.214,124.159 53.682,125.562L53.682,120.648Z" style="fill:rgb(255,0,0);fill-rule:nonzero;"/>
    </g>
</svg>
