<?xml version="1.0" encoding="UTF-8" standalone="no"?>
<!DOCTYPE svg PUBLIC "-//W3C//DTD SVG 1.1//EN" "http://www.w3.org/Graphics/SVG/1.1/DTD/svg11.dtd">
<svg width="100%" height="100%" viewBox="0 0 2427 924" version="1.1" xmlns="http://www.w3.org/2000/svg" xmlns:xlink="http://www.w3.org/1999/xlink" xml:space="preserve" xmlns:serif="http://www.serif.com/" style="fill-rule:evenodd;clip-rule:evenodd;stroke-linejoin:round;stroke-miterlimit:2;">
    <g transform="matrix(0.9708,0,0,0.3696,0,0)">
        <rect x="0" y="0" width="2500" height="2500" style="fill:none;"/>
        <g transform="matrix(1.02785,0,0,2.69145,-35.2319,-2117.58)">
            <path d="M589.307,1421.89C906.262,1305.46 1008.93,1200.59 979.464,1099.37C951.644,1003.86 726.579,971.617 481.84,1042.25C312.014,1091.25 221.394,1153.13 242.366,1217.8C267.281,1294.63 446.316,1259.09 561.578,1220.81C662.638,1187.24 683.948,1145.89 675.426,1118.72C665.751,1087.87 612.212,1075.01 524.355,1099.06C449.104,1119.65 416.096,1147.34 423.411,1168.23C431.245,1190.56 511.865,1175.41 528.297,1162.49L525.068,1156.94C502.721,1170.46 439.468,1181.05 434.306,1164.79C429.014,1148.1 474.719,1127.48 528.44,1112.57C598.438,1093.14 647.827,1098.06 654.701,1125.58C658.021,1138.91 652.911,1171.34 545.379,1204.23C407.679,1246.37 291.003,1249.75 276.982,1208.28C263.818,1169.32 318.991,1122.75 502.591,1067.07C692.728,1009.44 898.169,1038.24 915.73,1115.98C935.042,1201.55 753.906,1288.73 599.904,1336.13C517.182,1361.59 380.222,1386.74 251.069,1386.92C113.265,1387.13 53.721,1357.23 38.689,1299.48C23.566,1241.4 91.917,1099.93 400.364,1002.55C733.401,897.417 1130.98,952.097 1215.19,1104.88C1265.95,1196.98 1184.1,1350.9 991.007,1480.37C849.948,1574.96 698.227,1658.6 489.362,1711.88C487.3,1658.12 497.663,1575.75 563.316,1507.68C589.061,1480.99 595.507,1449.53 589.307,1421.89Z" style="fill:rgb(75,105,175);"/>
        </g>
        <g transform="matrix(1.02785,0,0,2.69145,-35.2319,-2117.58)">
            <path d="M1378.97,1335.2C1378.97,1359.04 1366.26,1382.64 1339.35,1382.64C1323.97,1382.64 1315.24,1374.16 1315.24,1358.65C1315.24,1333.06 1331,1311.98 1354.33,1311.98C1369.58,1312 1378.97,1320.36 1378.97,1335.2ZM1334.03,1360.39C1334.03,1366.87 1337.35,1369.79 1342.4,1369.79C1353.8,1369.79 1359.91,1348.45 1359.91,1335.21C1359.91,1327.38 1356.99,1325.13 1351.67,1325.13C1339.76,1325.12 1334.03,1350.05 1334.03,1360.39ZM1442.94,1297.48C1438.45,1297.48 1434.86,1300.27 1433.8,1305.16L1431.82,1314.84L1449.05,1314.84L1441.9,1327.01L1429.81,1327.01L1418.97,1382.69C1413.44,1417 1389.36,1428.3 1379.4,1431.94L1372.79,1417C1378.05,1414.74 1396.14,1409.48 1401.33,1382.69L1412.45,1327.01L1399.05,1327.01L1401.71,1314.84L1414.7,1314.84C1414.83,1312.05 1415.37,1308.61 1416.03,1305.56C1419.09,1290.97 1428.76,1284.49 1442.68,1284.49C1448.5,1284.49 1454.21,1286.34 1457.78,1288.71L1450.1,1299.45C1447.91,1298.21 1445.45,1297.53 1442.94,1297.48ZM1420.06,837.146C1403.82,827.341 1391.68,823.476 1378.28,823.476C1363.59,823.476 1353.25,831.984 1353.25,844.111C1353.25,853.398 1358.17,858.041 1373.11,862.178L1394.79,868.105C1424.18,876.108 1440.19,894.927 1440.19,921.502C1440.19,957.869 1410.77,981.863 1366.14,981.863C1345.78,981.863 1323.09,975.923 1305.02,965.612L1318.44,937.494C1335.21,946.261 1349.65,951.942 1367.71,951.942C1388.34,951.942 1399.18,943.434 1399.18,927.442C1399.18,915.834 1391.68,908.61 1375.69,904.226L1355.83,898.818C1338.05,893.915 1326.95,886.95 1320.49,876.121C1315.51,867.877 1312.93,858.409 1313.02,848.78C1313.02,816.032 1339.31,793.335 1377.23,793.335C1399.16,793.335 1421.33,800.04 1437.09,811.388L1420.06,837.146ZM1546.97,879.96C1540,873.501 1532.53,869.636 1526.07,869.636C1510.63,869.636 1503.65,883.046 1503.65,914.005C1503.65,931.294 1505.96,941.605 1510.34,947.273C1514.11,951.969 1519.8,954.722 1525.82,954.756C1533.82,954.756 1541.04,951.41 1549.55,943.927L1551.62,942.124L1567.36,963.005C1562.19,968.167 1559.86,969.97 1555.22,972.81C1545.92,978.232 1535.61,981.059 1522.98,981.059C1486.62,981.059 1465.47,955.781 1465.47,912.968C1465.47,882.541 1477.08,862.412 1492.55,851.841C1501.32,845.914 1514.21,842.049 1525.3,842.049C1534.06,842.049 1543.61,844.111 1550.83,847.976C1555.72,850.557 1558.06,852.36 1563.73,857.263L1546.97,879.96ZM1627.45,842.814L1627.45,940.308C1627.45,954.497 1633.9,962.227 1636.46,966.364L1610.17,981.578C1605.79,978.478 1592.87,966.364 1592.87,945.729L1592.87,848.236L1627.45,842.814ZM1631.58,809.547C1631.58,821.414 1622.04,830.947 1610.18,830.947C1598.58,830.947 1589.03,821.401 1589.03,809.547C1589.03,797.692 1598.84,788.134 1610.69,788.134C1622.28,788.134 1631.58,797.679 1631.58,809.547ZM1697.6,897.495L1697.6,896.976C1697.6,878.663 1705.1,868.339 1718.25,868.339C1725.21,868.339 1730.1,870.92 1733.47,876.082C1736.56,880.971 1737.6,886.146 1737.6,895.938L1737.6,897.482L1697.6,897.482L1697.6,897.495ZM1758.47,942.643C1747.91,951.41 1736.81,955.794 1724.95,955.794C1707.14,955.794 1697.09,944.186 1697.09,923.81L1697.09,922.773L1773.45,922.773L1773.45,914.77C1773.45,887.171 1768.03,869.376 1755.91,856.99C1747.38,848.223 1732.94,843.061 1717.74,843.061C1700.18,843.061 1687.04,848.741 1676.2,860.868C1664.59,873.76 1659.72,889.492 1659.72,913.227C1659.72,954.756 1684.22,981.578 1722.12,981.578C1740.7,981.578 1756.68,975.638 1771.9,963.264L1758.47,942.643ZM1863.98,872.735C1857.01,872.735 1848,877.379 1839.98,884.603L1839.98,977.972L1805.4,977.972L1805.4,882.281C1805.4,870.933 1803.86,860.103 1800.77,851.335L1831.47,842.568C1834.56,847.976 1836.36,853.657 1836.36,859.078C1841.53,855.46 1845.91,852.373 1851.59,849.273C1858.97,845.609 1867.09,843.667 1875.32,843.592C1890.02,843.592 1902.91,851.335 1907.04,862.684C1908.84,867.586 1909.62,873.254 1909.62,881.516L1909.62,940.308C1909.62,954.497 1916.08,962.227 1918.66,966.364L1892.85,981.578C1888.46,978.478 1875.57,966.364 1875.57,945.729L1875.57,892.086C1875.57,877.119 1872.99,872.735 1863.98,872.735ZM2023.1,879.96C2016.14,873.501 2008.67,869.636 2002.23,869.636C1986.76,869.636 1979.8,883.046 1979.8,914.005C1979.8,931.294 1982.1,941.605 1986.49,947.273C1990.25,951.969 1995.94,954.722 2001.96,954.756C2009.96,954.756 2017.19,951.41 2025.7,943.927L2027.77,942.124L2043.5,963.005C2038.34,968.167 2036.01,969.97 2031.36,972.81C2022.09,978.232 2011.75,981.059 1999.12,981.059C1962.77,981.059 1941.61,955.781 1941.61,912.968C1941.61,882.541 1953.22,862.412 1968.69,851.841C1977.46,845.914 1990.35,842.049 2001.44,842.049C2010.21,842.049 2019.76,844.111 2026.98,847.976C2031.87,850.557 2034.2,852.36 2039.87,857.263L2023.1,879.96ZM2097.91,897.495L2097.91,896.976C2097.91,878.663 2105.38,868.339 2118.56,868.339C2125.52,868.339 2130.41,870.92 2133.76,876.082C2136.87,880.971 2137.88,886.146 2137.88,895.938L2137.88,897.482L2097.91,897.482L2097.91,897.495ZM2158.78,942.643C2148.22,951.41 2137.12,955.794 2125.24,955.794C2107.46,955.794 2097.41,944.186 2097.41,923.81L2097.41,922.773L2173.76,922.773L2173.76,914.77C2173.76,887.171 2168.34,869.376 2156.2,856.99C2147.69,848.223 2133.24,843.061 2118.03,843.061C2100.49,843.061 2087.35,848.741 2076.51,860.868C2064.9,873.76 2060,889.492 2060,913.227C2060,954.756 2084.53,981.578 2122.41,981.578C2141.01,981.578 2156.99,975.638 2172.22,963.264L2158.78,942.643ZM1581.62,1033.44L1605.11,1123.19C1608.46,1136.1 1609.74,1142.29 1611.3,1151.57C1612.84,1142.29 1614.92,1133 1617.76,1122.43L1642,1033.44L1687.9,1033.44L1703.9,1212.7L1668.53,1212.7L1661.84,1117.01C1661.05,1105.66 1660.55,1096.63 1660.55,1087.09C1658.74,1096.39 1656.5,1105.6 1653.83,1114.69L1625.45,1212.7L1594.75,1212.7L1569.21,1118.56C1566.4,1108.09 1563.99,1097.5 1561.99,1086.84C1561.99,1097.41 1561.48,1107.99 1560.69,1119.08L1554.5,1212.7L1518.66,1212.7L1535.43,1033.44L1581.62,1033.44ZM1773.54,1077.3L1773.54,1162.14C1773.54,1174.01 1774.55,1180.21 1776.38,1183.82C1778.18,1187.42 1783.34,1190.02 1788.49,1190.02C1797,1190.02 1807.34,1183.82 1809.89,1177.37L1809.89,1084.51L1842.93,1077.54L1842.93,1178.39C1842.93,1187.16 1845.77,1196.19 1850.9,1202.38L1826.4,1216.31C1821.84,1213.05 1818.27,1208.58 1816.09,1203.41C1807.58,1211.66 1795.2,1216.05 1781.26,1216.05C1762.68,1216.05 1746.7,1207.28 1742.32,1194.64C1740.24,1188.7 1739.45,1181.74 1739.45,1168.33L1739.45,1083.73L1773.54,1077.3ZM1962.08,1112.62C1948.93,1105.92 1939.38,1103.09 1929.58,1103.09C1919.53,1103.09 1912.81,1108.24 1912.81,1115.98C1912.81,1122.69 1917.19,1126.31 1929.32,1129.39L1945.3,1133.52C1961.56,1137.64 1966.96,1142.55 1971.61,1148.47C1976.5,1154.67 1978.84,1162.14 1978.84,1170.91C1978.84,1198.25 1956.14,1216.82 1922.35,1216.82C1906.09,1216.82 1888.31,1211.67 1868.96,1201.61L1881.34,1176.33C1891.9,1182.79 1910.23,1191.3 1925.19,1191.3C1935,1191.3 1942.73,1184.85 1942.73,1176.33C1942.73,1167.31 1936.3,1162.66 1922.37,1160.08L1906.89,1157.25C1898.12,1155.7 1887.28,1149.51 1882.65,1143.83C1878,1138.16 1875.16,1128.62 1875.16,1120.11C1875.16,1094.31 1895.54,1077.04 1926.23,1077.04C1947.38,1077.04 1961.31,1083.48 1973.45,1089.42L1962.08,1112.62ZM2037.9,1132.22L2037.9,1131.7C2037.9,1113.39 2045.4,1103.08 2058.55,1103.08C2065.51,1103.08 2070.4,1105.66 2073.78,1110.82C2076.86,1115.71 2077.9,1120.87 2077.9,1130.68L2077.9,1132.22L2037.9,1132.22ZM2098.77,1177.37C2088.21,1186.14 2077.11,1190.52 2065.23,1190.52C2047.45,1190.52 2037.39,1178.91 2037.39,1158.54L2037.39,1157.5L2113.75,1157.5L2113.75,1149.5C2113.75,1121.9 2108.33,1104.1 2096.19,1091.72C2087.68,1082.95 2073.23,1077.79 2058.04,1077.79C2040.48,1077.79 2027.34,1083.47 2016.5,1095.58C2004.89,1108.49 1999.99,1124.22 1999.99,1147.95C1999.99,1189.48 2024.52,1216.31 2062.4,1216.31C2081,1216.31 2096.98,1210.36 2112.2,1197.99L2098.77,1177.37ZM2175.65,1077.3L2175.65,1162.14C2175.65,1174.01 2176.66,1180.21 2178.49,1183.82C2180.3,1187.42 2185.43,1190.02 2190.61,1190.02C2199.11,1190.02 2209.43,1183.82 2212.01,1177.37L2212.01,1084.51L2245.04,1077.54L2245.04,1178.39C2245.04,1187.16 2247.88,1196.19 2253.02,1202.38L2228.52,1216.31C2223.95,1213.05 2220.38,1208.58 2218.21,1203.41C2209.7,1211.66 2197.31,1216.05 2183.37,1216.05C2164.8,1216.05 2148.82,1207.28 2144.41,1194.64C2142.36,1188.7 2141.57,1181.74 2141.57,1168.33L2141.57,1083.73L2175.65,1077.3ZM2409.85,1106.7C2403.39,1106.7 2394.37,1111.08 2386.89,1117.79L2386.89,1212.7L2354.14,1212.7L2354.14,1126.81C2354.14,1110.3 2351.81,1106.44 2342.26,1106.44C2335.83,1106.44 2327.06,1109.8 2319.57,1116.5L2319.57,1212.7L2285.78,1212.7L2285.78,1120.61C2285.78,1101.54 2284.48,1093.27 2280.89,1086.83L2312.09,1078.32C2314.43,1081.92 2315.44,1085.03 2316.72,1091.73C2325.74,1082.96 2336.84,1078.32 2348.97,1078.32C2359.81,1078.32 2368.82,1081.92 2375.79,1089.15C2377.59,1090.96 2379.41,1093.27 2380.95,1095.6C2393.06,1083.22 2403.91,1078.32 2418.34,1078.32C2428.65,1078.32 2438.46,1081.42 2444.39,1086.58C2451.88,1093.03 2454.19,1100.76 2454.19,1118.81L2454.19,1175.05C2454.19,1189.22 2460.65,1196.97 2463.23,1201.09L2437.95,1216.32C2433.57,1213.22 2420.68,1201.09 2420.68,1180.46L2420.68,1125.52C2420.69,1109.78 2418.86,1106.7 2409.85,1106.7ZM1776.03,1326.34C1772.46,1326.34 1767.82,1328.73 1763.72,1332.45L1763.72,1380.4L1745.96,1380.4L1745.96,1331.23C1746.05,1325.84 1745.25,1320.47 1743.58,1315.34L1759.34,1310.83C1760.93,1313.62 1761.87,1316.52 1761.87,1319.31C1764.5,1317.43 1766.75,1315.86 1769.67,1314.27C1773.27,1312.41 1777.91,1311.35 1781.88,1311.35C1789.42,1311.35 1796.04,1315.33 1798.17,1321.15C1799.1,1323.65 1799.49,1326.57 1799.49,1330.83L1799.49,1361.02C1799.49,1368.31 1802.81,1372.29 1804.12,1374.42L1790.88,1382.23C1788.62,1380.66 1782.01,1374.42 1782.01,1363.81L1782.01,1336.25C1781.99,1328.6 1780.68,1326.34 1776.03,1326.34ZM1535.37,1288.31L1547.44,1334.42C1549.16,1341.06 1549.82,1344.23 1550.6,1348.99C1551.4,1344.23 1552.45,1339.46 1553.92,1334.02L1566.38,1288.33L1589.96,1288.33L1598.17,1380.41L1580.04,1380.41L1576.59,1331.24C1576.18,1326.13 1575.95,1321.01 1575.9,1315.89C1574.84,1321.18 1574.05,1324.5 1572.45,1330.05L1557.89,1380.41L1542.11,1380.41L1529.01,1332.05C1527.56,1326.66 1526.31,1321.21 1525.28,1315.73C1525.28,1321.18 1525.02,1326.6 1524.62,1332.29L1521.43,1380.4L1503.01,1380.4L1511.63,1288.31L1535.37,1288.31ZM1694.25,1326.34C1690.66,1326.34 1686.02,1328.73 1681.92,1332.45L1681.92,1380.4L1664.16,1380.4L1664.16,1331.23C1664.25,1325.84 1663.44,1320.47 1661.78,1315.34L1677.54,1310.83C1679.13,1313.62 1680.06,1316.52 1680.06,1319.31C1682.7,1317.43 1684.95,1315.86 1687.87,1314.27C1691.47,1312.41 1696.11,1311.35 1700.08,1311.35C1707.62,1311.35 1714.24,1315.33 1716.37,1321.15C1717.3,1323.65 1717.69,1326.57 1717.69,1330.83L1717.69,1361.02C1717.69,1368.31 1721.01,1372.29 1722.32,1374.42L1709.08,1382.23C1706.82,1380.66 1700.21,1374.42 1700.21,1363.81L1700.21,1336.25C1700.21,1328.6 1698.86,1326.34 1694.25,1326.34ZM1844.92,1339.05L1844.92,1338.79C1844.92,1329.36 1848.75,1324.07 1855.51,1324.07C1859.07,1324.07 1861.62,1325.39 1863.34,1328.05C1864.91,1330.56 1865.44,1333.21 1865.44,1338.26L1865.44,1339.05L1844.92,1339.05ZM1876.18,1362.25C1870.76,1366.74 1865.07,1369 1858.96,1369C1849.81,1369 1844.64,1363.04 1844.64,1352.58L1844.64,1352.05L1883.87,1352.05L1883.87,1347.92C1883.87,1333.76 1881.08,1324.62 1874.86,1318.26C1870.47,1313.75 1863.06,1311.09 1855.25,1311.09C1846.23,1311.09 1839.46,1314.01 1833.9,1320.23C1827.95,1326.87 1825.44,1334.95 1825.44,1347.13C1825.44,1368.47 1838.04,1382.24 1857.52,1382.24C1867.04,1382.24 1875.25,1379.2 1883.08,1372.84L1876.18,1362.25ZM1952.75,1328.97C1946,1325.55 1941.11,1324.08 1936.06,1324.08C1930.9,1324.08 1927.45,1326.74 1927.45,1330.7C1927.45,1334.15 1929.71,1336.02 1935.93,1337.59L1944.14,1339.71C1952.51,1341.84 1955.26,1344.34 1957.67,1347.42C1960.17,1350.58 1961.37,1354.43 1961.37,1358.95C1961.37,1372.98 1949.72,1382.53 1932.34,1382.53C1924,1382.53 1914.86,1379.87 1904.93,1374.69L1911.29,1361.72C1916.71,1365.02 1926.14,1369.4 1933.81,1369.4C1938.85,1369.4 1942.82,1366.08 1942.82,1361.72C1942.82,1357.07 1939.5,1354.68 1932.33,1353.36L1924.4,1351.89C1919.89,1351.1 1914.32,1347.91 1911.94,1345C1909.55,1342.1 1908.09,1337.2 1908.09,1332.83C1908.09,1319.58 1918.55,1310.71 1934.32,1310.71C1945.19,1310.71 1952.34,1314.01 1958.56,1317.07L1952.75,1328.97ZM2012.95,1324.33C2016.11,1324.33 2018.9,1325.68 2020.62,1327.92C2023.04,1330.96 2024.22,1336.91 2024.22,1346.05C2024.22,1362.09 2020.9,1368.99 2013.22,1368.99C2009.77,1368.99 2005.77,1367.13 2004.21,1363.41C2002.74,1359.98 2001.95,1354.13 2001.95,1346.34C2001.95,1339.58 2002.61,1334.81 2003.8,1331.22C2005.27,1326.99 2008.72,1324.33 2012.95,1324.33ZM2012.67,1311.24C1994.41,1311.24 1982.19,1325.41 1982.19,1346.73C1982.19,1368.08 1994.26,1381.86 2012.67,1381.86C2023.17,1381.86 2029.9,1378.27 2035.07,1372.43C2040.92,1365.82 2043.56,1357.87 2043.56,1346.2C2043.56,1335.2 2041.17,1327.78 2035.75,1321.42C2029.9,1314.54 2022.35,1311.24 2012.67,1311.24ZM2096.34,1324.75L2084.97,1324.75L2084.97,1358.79C2084.97,1367.4 2086.54,1369.66 2092.65,1369.66C2094.24,1369.66 2095.81,1369.28 2099,1368.34L2101.26,1378.94C2096.69,1380.9 2091.79,1381.93 2086.82,1381.98C2077.81,1381.98 2070.64,1378 2068.53,1372.02C2067.47,1369.1 2067.34,1367.79 2067.34,1361.55L2067.34,1324.72L2060.58,1324.72L2060.58,1312.54L2067.34,1312.54C2067.34,1305.9 2067.34,1301.54 2068,1296.51L2086.02,1292C2085.36,1298.22 2084.98,1305.65 2084.98,1312.54L2100.87,1312.54L2096.34,1324.75ZM2157.66,1350.71L2157.4,1365.3C2154.74,1368.22 2151.45,1369.93 2148.13,1369.93C2143.62,1369.93 2140.3,1366.37 2140.3,1361.03C2140.3,1352.95 2144.53,1350.7 2156.86,1350.7L2157.66,1350.7L2157.66,1350.71ZM2122.84,1320.63L2130.39,1333.34C2137.68,1328.45 2144.29,1325.67 2150,1325.67C2156.48,1325.67 2157.95,1328.17 2157.95,1335.72L2157.95,1338.51C2156.48,1338.38 2155.29,1338.38 2153.97,1338.38C2132.36,1338.38 2121.36,1345.8 2121.36,1361.71C2121.36,1375.21 2129.57,1382.89 2144.69,1382.89C2150.24,1382.89 2155.03,1381.57 2158.35,1379.19C2159.67,1378.26 2161.11,1376.93 2162.45,1375.62C2164.17,1379.08 2167.87,1382.11 2171.97,1383.84L2181.4,1372.97C2176.24,1369.11 2175.04,1366.35 2175.04,1359.06L2175.04,1357.87L2175.42,1335.07C2175.57,1327.78 2175.16,1325.67 2174.22,1322.89C2171.59,1315.34 2163.76,1311.09 2152.36,1311.09C2146.13,1311.09 2140.43,1312.28 2133.81,1315.07C2129.99,1316.58 2126.32,1318.44 2122.84,1320.63ZM1639.61,1311.09L1639.61,1380.54L1621.86,1380.54L1621.86,1313.86L1639.61,1311.09ZM1641.74,1293.99C1641.74,1300.1 1636.82,1305.02 1630.74,1305.02C1624.77,1304.98 1619.87,1300.05 1619.87,1294.07C1619.87,1294.05 1619.87,1294.02 1619.87,1293.99C1619.87,1287.91 1624.92,1283 1630.99,1283C1636.95,1283 1641.74,1287.91 1641.74,1293.99ZM2200.63,1332.75C2200.63,1345.61 2211.12,1356.08 2223.99,1356.08C2236.83,1356.08 2247.32,1345.61 2247.32,1332.75C2247.32,1319.88 2236.83,1309.41 2223.99,1309.41C2211.11,1309.41 2200.63,1319.88 2200.63,1332.75ZM2204.89,1332.75C2204.89,1322.29 2213.49,1313.68 2223.95,1313.68C2234.41,1313.68 2243.02,1322.29 2243.02,1332.75L2243.02,1332.75C2243.02,1343.21 2234.41,1351.81 2223.95,1351.81C2213.49,1351.81 2204.89,1343.21 2204.89,1332.75L2204.89,1332.75Z" style="fill:rgb(0, 0, 0);"/>
        </g>
        <g transform="matrix(1.02785,0,0,2.69145,-35.2319,-2117.58)">
            <path d="M2220.31,1324.3L2208.69,1324.3L2208.69,1326.64L2212.91,1326.64L2212.91,1341.13L2215.73,1341.13L2215.73,1326.64L2219.96,1326.64L2220.31,1324.3ZM2238.43,1341.13L2236.91,1324.3L2233.19,1324.3L2230.58,1333.88C2230.23,1335.04 2230.02,1336.21 2229.94,1336.69C2229.81,1336.21 2229.71,1335.25 2229.31,1333.82L2226.73,1324.3L2223.02,1324.3L2221.45,1341.13L2224.21,1341.13L2224.92,1330.97C2225.03,1329.9 2225.1,1328.83 2225.13,1327.75C2225.24,1328.31 2225.53,1329.83 2225.85,1330.94L2228.66,1341.13L2231.05,1341.13L2234.11,1330.46C2234.41,1329.4 2234.64,1328.34 2234.77,1327.78C2234.77,1328.29 2234.79,1329.63 2234.9,1330.7L2235.69,1341.14L2238.43,1341.14L2238.43,1341.13Z" style="fill:rgb(0, 0, 0);"/>
        </g>
    </g>
</svg>
